<?xml version="1.0" encoding="UTF-8"?>
<svg width="28.5" height="31.5" version="1.1">
 <g transform="translate(-8.25,-8.25)" fill-rule="evenodd" stroke="#000" stroke-linecap="round" stroke-linejoin="round" stroke-width="1.5">
  <g stroke-linecap="butt">
   <path d="m9 39h27v-3h-27z"/>
   <path d="m12.5 32 1.5-2.5h17l1.5 2.5z"/>
   <path d="m12 36v-4h21v4z"/>
   <path d="m14 29.5v-13h17v13z" stroke-linejoin="miter"/>
   <path d="m14 16.5-3-2.5h23l-3 2.5z"/>
   <path d="m11 14v-5h4v2h5v-2h5v2h5v-2h4v5z"/>
  </g>
  <g fill="none" stroke="#fff" stroke-linejoin="miter" stroke-width="1">
   <path d="m12 35.5h21"/>
   <path d="m13 31.5h19"/>
   <path d="m14 29.5h17"/>
   <path d="m14 16.5h17"/>
   <path d="m11 14h23"/>
  </g>
 </g>
</svg>
